<svg width="1920" height="450" viewBox="0 0 1920 450" fill="none" xmlns="http://www.w3.org/2000/svg">
<mask id="mask0_2_10892" style="mask-type:alpha" maskUnits="userSpaceOnUse" x="0" y="0" width="1920" height="450">
<rect width="1920" height="450" fill="#E3F1E9"/>
</mask>
<g mask="url(#mask0_2_10892)">
<path d="M1200.8 92.6598C1195.62 90.8775 1189.2 87.7035 1189.14 81.3548C1189.11 77.0466 1191.58 73.0731 1192.77 69.031C1195.05 61.2547 1192.1 52.738 1187.13 46.6632C1182.03 40.4205 1174.56 36.0131 1166.59 34.6874C1162.67 34.0302 1158.62 34.1435 1154.79 35.1653C1150.93 36.1876 1147.24 38.096 1143.84 40.1442C1136.25 44.7187 1129.52 50.846 1124.08 57.8311C1118.74 64.6959 1114.42 72.6699 1112.82 81.2928C1112.08 85.2735 1111.91 89.4395 1112.63 93.4446C1113.49 98.2582 1115.86 102.695 1118.96 106.429C1125.32 114.062 1134.81 119.164 1144.42 121.36C1154 123.534 1163.86 121.046 1170.81 113.981C1174.44 110.291 1176.86 105.756 1179.21 101.2C1180.41 98.8937 1181.82 96.4319 1184.44 95.5821C1187.02 94.7413 1189.67 95.5639 1192.06 96.5906C1194.11 97.4871 1196.06 98.6059 1198.12 99.4867C1198.48 99.6472 1198.83 99.5344 1199.05 99.1988C1200.04 97.6577 1201.23 96.267 1201.85 94.5111C1202.13 93.673 1200.79 93.3639 1200.5 94.2021C1199.94 95.8154 1198.75 97.136 1197.84 98.5571C1198.15 98.461 1198.46 98.3653 1198.77 98.2692C1194.94 96.6315 1191.16 93.8507 1186.83 93.8637C1181.44 93.8868 1179.22 98.173 1177.06 102.41C1174.75 106.918 1171.99 111.253 1168.13 114.606C1164.44 117.805 1159.88 119.906 1155.04 120.537C1145.13 121.838 1134.53 117.585 1126.67 111.751C1122.65 108.767 1119.09 105.079 1116.68 100.675C1114.42 96.5548 1113.47 92.0335 1113.56 87.3458C1113.73 78.7375 1117.2 70.4542 1121.83 63.3225C1126.69 55.8552 1133.07 49.2857 1140.31 44.1123C1146.79 39.4871 1154.28 35.4474 1162.44 35.6642C1170.57 35.8821 1178.5 39.6807 1184.17 45.4437C1189.67 51.048 1193.52 59.4813 1191.72 67.4453C1190.81 71.5177 1188.54 75.1955 1187.89 79.3457C1187.19 83.8728 1189.34 87.9414 1193.04 90.5216C1195.3 92.0921 1197.86 93.1209 1200.45 94.0004C1201.33 94.3007 1201.63 92.9459 1200.8 92.6598Z" fill="#FDB120"/>
<path d="M1196.02 93.1402C1193.09 91.8104 1190.03 90.727 1187.21 89.1351C1185.85 88.3654 1184.55 87.4525 1183.44 86.3306C1182.19 85.0563 1181.36 83.4874 1180.52 81.9265C1177.9 76.9812 1176.51 71.4728 1173.57 66.6942C1168.07 57.7894 1157.77 52.2599 1147.49 51.2973C1141.75 50.7608 1135.94 51.6966 1130.77 54.286C1129.97 54.6869 1130.7 55.8601 1131.49 55.4673C1140.85 50.7972 1152.23 51.9987 1161.19 56.9843C1165.96 59.64 1170.09 63.4109 1172.83 68.1567C1175.57 72.8793 1176.93 78.2399 1179.55 83.029C1181.16 85.9809 1183.04 88.2358 1185.94 90.0046C1188.91 91.8027 1192.22 92.9406 1195.37 94.3653C1196.18 94.7306 1196.84 93.513 1196.02 93.1402Z" fill="#FDB120"/>
<path d="M1180.36 89.1422C1164.45 86.6773 1147.49 86.4203 1132.86 78.9562C1128.62 76.7921 1124.76 74.0138 1121.44 70.6C1120.83 69.9627 1119.88 70.9704 1120.5 71.6078C1132.47 83.9114 1150.16 86.6794 1166.43 88.7024C1170.98 89.2692 1175.53 89.7811 1180.06 90.4814C1180.92 90.6259 1181.23 89.2787 1180.36 89.1422Z" fill="#FDB120"/>
<path d="M1172.43 80.5967C1162.55 68.2969 1146.49 61.9185 1131.06 60.7053C1130.18 60.6319 1130.23 62.0146 1131.11 62.0804C1145.99 63.2485 1161.71 69.4418 1171.25 81.307C1171.8 82.0013 1172.98 81.291 1172.43 80.5967Z" fill="#FDB120"/>
<path d="M1158.87 77.5722C1152.47 76.6816 1146.47 73.8928 1141.09 70.3886C1140.35 69.9039 1139.7 71.129 1140.44 71.6137C1145.91 75.1699 1152.05 78.0167 1158.57 78.9194C1159.44 79.0402 1159.76 77.6925 1158.87 77.5722Z" fill="#FDB120"/>
<path d="M1175.22 94.7729C1168.36 96.8062 1161.29 98.4704 1154.09 98.2776C1146.38 98.0619 1139.28 95.4572 1132.47 91.9827C1127.73 89.5608 1122.9 86.6647 1120.07 82.0076C1119.61 81.2403 1118.43 81.9662 1118.89 82.7335C1121.35 86.7689 1125.24 89.5775 1129.29 91.865C1133.07 93.9815 1137.03 95.8964 1141.13 97.2907C1148.07 99.666 1155.36 100.184 1162.61 99.1322C1167.02 98.4832 1171.35 97.3834 1175.62 96.1133C1176.47 95.8516 1176.07 94.5267 1175.22 94.7729Z" fill="#FDB120"/>
<path d="M1172.99 100.248C1168.02 105.803 1161.49 109.758 1154.13 111.095C1145.75 112.606 1137.25 110.679 1130.43 105.594C1126.31 102.518 1122.81 98.712 1119.08 95.1942C1118.43 94.5891 1117.48 95.5893 1118.13 96.202C1125.07 102.746 1131.63 110.193 1141.4 112.236C1148.9 113.803 1156.75 112.834 1163.59 109.347C1167.55 107.328 1171.05 104.502 1174.01 101.201C1174.6 100.526 1173.59 99.5803 1172.99 100.248Z" fill="#FDB120"/>
<path d="M1151.2 104.384C1146.3 104.517 1141.37 103.454 1137.48 100.332C1136.79 99.7757 1135.84 100.783 1136.53 101.34C1140.71 104.703 1145.95 105.92 1151.23 105.767C1152.13 105.747 1152.09 104.356 1151.2 104.384Z" fill="#FDB120"/>
<path d="M1163.6 92.7816C1157.63 92.6982 1151.75 91.6107 1145.96 90.2389C1145.1 90.0319 1144.79 91.3792 1145.65 91.5862C1151.55 92.9857 1157.56 94.0848 1163.63 94.1648C1164.53 94.1752 1164.49 92.8001 1163.6 92.7816Z" fill="#FDB120"/>
<path d="M1133.23 85.7565C1130.17 84.3526 1127.14 82.9708 1124.87 80.3997C1124.28 79.7382 1123.33 80.7459 1123.93 81.4075C1126.28 84.0698 1129.43 85.5257 1132.59 86.9812C1133.39 87.3469 1134.05 86.1293 1133.23 85.7565Z" fill="#FDB120"/>
<path d="M1131.42 69.9146C1128.55 68.7078 1125.83 67.2147 1122.96 66.016C1122.14 65.6744 1121.49 66.8995 1122.31 67.2411C1125.18 68.4479 1127.9 69.941 1130.77 71.1397C1131.6 71.4732 1132.25 70.2637 1131.42 69.9146Z" fill="#FDB120"/>
<path d="M1185.89 75.6395C1184.31 69.1204 1183.19 62.2269 1178.99 56.7689C1174.57 51.0285 1168.01 46.866 1161 45.1419C1156.92 44.1378 1152.69 43.9128 1148.52 44.257C1147.63 44.3323 1147.67 45.7074 1148.56 45.6321C1157.99 44.8544 1166.87 47.3792 1174.07 53.602C1177.33 56.423 1179.81 59.8556 1181.33 63.8972C1182.81 67.8153 1183.57 71.9751 1184.57 76.0336C1184.78 76.9027 1186.1 76.501 1185.89 75.6395Z" fill="#FDB120"/>
<path d="M1186.3 57.2087C1184.5 54.0047 1182.71 50.7458 1180.28 47.961C1177.79 45.1151 1174.66 43.1032 1171.06 41.9904C1170.21 41.728 1169.9 43.0752 1170.75 43.3376C1174.24 44.4227 1177.19 46.4481 1179.56 49.243C1181.79 51.87 1183.43 54.9459 1185.12 57.9346C1185.55 58.7105 1186.73 57.9927 1186.3 57.2087Z" fill="#FDB120"/>
<path d="M729.647 202.194C721.45 198.078 710.774 196.674 701.788 198.43C695.601 199.644 687.217 203.32 687.705 210.943C688.14 217.621 695.476 221.513 701.362 222.325C707.975 223.227 715.252 222.416 721.45 219.879C724.505 218.63 727.6 216.782 729.504 213.982C731.509 211.044 731.725 207.65 730.747 204.292C730.217 202.466 727.509 203.623 728.024 205.431C731.506 217.466 712.17 220.073 704.323 219.656C699.276 219.384 692.915 217.658 690.975 212.304C688.757 206.21 696.589 202.517 701.236 201.549C710.15 199.699 720.407 200.833 728.589 204.931C730.262 205.775 731.353 203.042 729.647 202.194Z" fill="#FFC19E"/>
<path d="M728.714 204.324C722.302 206.969 715.27 207.558 708.446 208.374C706.557 208.594 706.967 211.529 708.841 211.291C715.905 210.437 723.199 209.763 729.84 207.029C731.587 206.322 730.465 203.584 728.714 204.324Z" fill="#FFC19E"/>
<path d="M733.362 225.273C729.451 229.25 725.661 233.343 722.11 237.666C718.049 242.598 713.58 248.116 711.629 254.297C710.942 256.476 710.552 258.96 711.615 261.087C712.786 263.429 715.347 264.417 717.806 264.737C721.667 265.248 725.885 264.764 729.304 262.872C733.226 260.708 736.19 257.2 738.294 253.318C742.789 245.003 744.159 232.645 736.329 225.824C734.906 224.575 733.154 226.958 734.562 228.188C740.682 233.507 739.574 243.331 736.657 249.997C735.048 253.672 732.611 257.127 729.308 259.435C726.335 261.516 722.77 262.148 719.192 261.924C718.028 261.847 716.805 261.696 715.746 261.179C715.08 260.862 714.524 260.34 714.294 259.893C713.546 258.475 713.947 256.58 714.541 254.892C716.44 249.409 720.323 244.556 723.923 240.104C726.057 237.484 728.281 234.941 730.549 232.455C731.439 231.492 732.329 230.528 733.252 229.569C733.654 229.166 734.022 228.759 734.424 228.356C734.77 227.996 735.038 227.727 735.172 227.593C736.478 226.245 734.686 223.911 733.362 225.273Z" fill="#FFC19E"/>
<path d="M734.352 227.729C732.31 233.833 729.09 239.421 726.335 245.185C725.52 246.895 728.253 247.988 729.068 246.277C731.823 240.514 735.043 234.925 737.085 228.822C737.69 227.035 734.943 225.924 734.352 227.729Z" fill="#FFC19E"/>
<path d="M702.116 232.276C694.4 232.295 685.869 232.531 679.007 236.513C674.817 238.946 670.364 242.839 668.713 247.532C668.013 249.542 667.943 251.747 669.16 253.574C670.561 255.676 673.102 256.56 675.456 257.053C681.606 258.316 687.817 255.261 692.403 251.384C697.419 247.141 701.782 241.257 703.27 234.75C703.681 232.906 700.756 232.561 700.363 234.391C699.292 239.138 696.186 243.534 692.844 246.977C689.216 250.705 684.454 253.973 679.123 254.37C675.771 254.626 670.022 253.379 671.362 248.899C672.514 244.984 676.302 241.729 679.603 239.571C685.963 235.444 694.409 235.214 701.739 235.198C703.618 235.196 703.994 232.274 702.116 232.276Z" fill="#FFC19E"/>
<path d="M699.628 233.683C695.287 237.071 690.621 239.965 686.28 243.353C684.796 244.511 686.588 246.845 688.091 245.673C692.432 242.285 697.098 239.391 701.438 236.003C702.941 234.831 701.13 232.511 699.628 233.683Z" fill="#FFC19E"/>
<path d="M1174.57 229.775C1179.04 253.236 1194.33 280.355 1219.18 286.373C1219.85 286.54 1220.48 286.009 1220.65 285.372C1222.39 278.56 1220.62 271.003 1218.91 264.347C1216.87 256.39 1214.1 249.094 1209.47 242.247C1205.21 235.934 1200.16 231.232 1193.44 227.607C1190.08 225.785 1186.57 224.257 1183.04 222.81C1181.46 222.172 1179.86 221.535 1178.27 220.919C1177.15 220.486 1175.92 219.699 1174.7 219.796C1173.98 219.853 1173.55 220.471 1173.56 221.133C1173.56 224.068 1174.28 226.884 1174.57 229.775C1174.74 231.37 1177.24 231.191 1177.07 229.576C1176.78 226.685 1176.05 223.869 1176.04 220.956C1175.66 221.408 1175.27 221.861 1174.9 222.293C1175.72 222.227 1177.62 223.362 1178.51 223.713C1180 224.298 1181.5 224.902 1182.97 225.508C1186.15 226.822 1189.31 228.218 1192.34 229.866C1198.8 233.37 1203.57 237.935 1207.65 244.041C1211.91 250.414 1214.44 257.166 1216.37 264.529C1218.07 270.926 1219.86 278.32 1218.18 284.905C1218.67 284.564 1219.15 284.245 1219.64 283.904C1207.68 280.999 1198.13 272.476 1191.15 262.64C1184.21 252.844 1179.32 241.376 1177.07 229.556C1176.76 228.013 1174.27 228.192 1174.57 229.775Z" fill="#FFC1AC"/>
<path d="M1175.84 224.187C1184.88 233.596 1192.8 244.018 1200.02 254.879C1203.12 259.556 1206.43 264.055 1209.67 268.641C1213.04 273.436 1216.38 278.496 1217.81 284.272C1218.19 285.829 1220.55 284.977 1220.17 283.42C1218.78 277.863 1215.67 272.885 1212.45 268.238C1209.02 263.286 1205.43 258.488 1202.09 253.467C1194.74 242.416 1186.67 231.885 1177.47 222.308C1176.34 221.133 1174.72 223.05 1175.84 224.187Z" fill="#FFC1AC"/>
<path d="M1213.77 278.684C1203.79 269.229 1193.44 259.764 1186.7 247.599C1185.93 246.194 1183.87 247.624 1184.65 249.029C1191.48 261.368 1202.01 270.999 1212.13 280.583C1213.3 281.695 1214.92 279.798 1213.77 278.684Z" fill="#FFC1AC"/>
<path d="M1210.53 256.755C1206.78 249.758 1201.54 243.966 1196.14 238.226C1195.04 237.047 1193.43 238.965 1194.52 240.123C1199.79 245.733 1204.84 251.38 1208.5 258.183C1209.23 259.612 1211.29 258.162 1210.53 256.755Z" fill="#FFC1AC"/>
<path d="M1187.64 242.499C1186.04 239.512 1184.78 236.336 1182.9 233.491C1182.54 232.917 1181.7 232.803 1181.15 233.188C1180.58 233.575 1180.46 234.369 1180.85 234.941C1182.72 237.786 1183.98 240.962 1185.59 243.949C1185.92 244.546 1186.82 244.614 1187.34 244.252C1187.93 243.823 1187.95 243.098 1187.64 242.499Z" fill="#FFC1AC"/>
<path d="M1180.83 198.726C1195.44 217.72 1221.27 234.854 1246.2 229.048C1246.91 228.891 1247.08 228.033 1246.96 227.44C1245.42 220.468 1240.27 214.407 1235.68 209.205C1230.6 203.46 1225.29 198.518 1218.61 194.649C1211.91 190.761 1205.25 188.579 1197.49 188.253C1193.5 188.088 1189.5 188.307 1185.51 188.625C1183.74 188.767 1181.94 188.93 1180.17 189.092C1178.91 189.212 1177.45 189.067 1176.36 189.737C1175.94 189.991 1175.66 190.717 1175.9 191.201C1177.24 193.928 1179.21 196.183 1180.83 198.726C1181.71 200.083 1183.76 198.653 1182.89 197.296C1181.4 194.943 1179.5 192.843 1178.24 190.351C1178.08 190.846 1177.93 191.32 1177.77 191.815C1178.46 191.398 1180.86 191.548 1181.84 191.47C1183.52 191.317 1185.19 191.163 1186.87 191.049C1190.46 190.783 1194.07 190.616 1197.67 190.771C1205.09 191.084 1211.48 193.388 1217.84 197.121C1224.19 200.856 1229.23 205.68 1234.05 211.184C1238.36 216.107 1243.13 221.776 1244.58 228.313C1244.83 227.77 1245.07 227.249 1245.33 226.705C1233.34 229.49 1220.96 226.136 1210.31 220.494C1199.7 214.868 1190.2 206.823 1182.89 197.316C1181.9 196.028 1179.85 197.458 1180.83 198.726Z" fill="#FFC1AC"/>
<path d="M1179.16 193.033C1191.84 197.488 1203.92 203.379 1215.58 210.046C1220.38 212.799 1225.34 215.238 1230.2 217.844C1235.09 220.469 1240.1 223.366 1243.76 227.617C1244.8 228.82 1246.85 227.41 1245.81 226.187C1238.64 217.835 1227.57 214.075 1218.27 208.707C1206.12 201.676 1193.51 195.426 1180.24 190.776C1178.73 190.253 1177.65 192.51 1179.16 193.033Z" fill="#FFC1AC"/>
<path d="M1237.76 224.639C1224.71 220.735 1211.26 217.004 1199.88 209.269C1198.56 208.37 1196.92 210.269 1198.26 211.167C1210.03 219.173 1223.79 223.059 1237.29 227.108C1238.83 227.568 1239.28 225.101 1237.76 224.639Z" fill="#FFC1AC"/>
<path d="M1225.26 206.68C1218.75 202.114 1211.51 199.275 1204.08 196.571C1202.57 196.028 1201.49 198.285 1203 198.828C1210.2 201.45 1217.3 204.159 1223.64 208.578C1224.96 209.498 1226.57 207.6 1225.26 206.68Z" fill="#FFC1AC"/>
<path d="M1198.41 204.277C1195.54 202.275 1192.9 199.953 1189.85 198.206C1189.28 197.89 1188.44 198.198 1188.17 198.782C1187.88 199.448 1188.15 200.11 1188.74 200.465C1189.5 200.887 1190.05 201.245 1190.71 201.695C1191.41 202.182 1192.1 202.69 1192.78 203.198C1194.1 204.198 1195.39 205.221 1196.75 206.177C1197.28 206.557 1198.07 206.615 1198.51 206.037C1198.93 205.561 1198.98 204.693 1198.41 204.277Z" fill="#FFC1AC"/>
<path d="M821.328 103.75C819.425 110.911 809.573 113.29 803.19 113.463C799.891 113.554 796.098 113.224 793.316 111.292C792.263 110.567 791.428 109.557 791.117 108.293C790.765 106.83 791.063 104.638 792.062 103.493C793.257 102.13 795.334 103.402 796.559 104.085C798.197 104.993 799.805 106.095 801.602 106.651C805.307 107.792 809.743 105.309 810.686 101.526C811.612 97.7937 808.807 94.0861 805.266 93.1403C801.422 92.1082 797.149 93.0839 793.337 93.849C789.665 94.588 785.096 96.174 781.416 94.8286C778.717 93.8313 776.735 91.5924 775.544 89.025C775.339 88.5749 774.283 86.7112 774.694 86.1684C774.722 86.141 775.683 86.3064 775.947 86.3702C779.329 87.27 782.615 89.5896 786.226 89.3752C789.61 89.1748 792.821 86.3243 791.364 82.8417C789.875 79.2925 786.352 77.7332 782.957 76.6342C780.884 75.9645 778.321 75.1898 777.301 73.061C776.713 71.8217 776.413 68.3408 778.12 67.6354C779.895 66.8976 781.929 69.3582 783.785 69.1575C787.121 68.8018 785.456 62.9065 784.212 61.4221C782.674 59.6138 780.3 58.692 778.13 57.8774C775.607 56.9318 773.017 56.0186 770.71 54.5833C768.212 53.0354 766.507 50.8272 765.845 47.9339C765.293 45.5229 765.69 42.9951 766.438 40.6537C767.129 38.4498 768.273 35.9027 770.369 34.6929C772.275 33.6027 774.088 34.1646 775.073 36.022C776.441 38.5858 776.671 43.2822 779.918 44.3298C781.417 44.8108 783.355 44.2682 784.404 43.1133C785.56 41.8379 785.871 39.9836 786.123 38.35C786.449 36.1863 786.531 33.9481 787.194 31.8545C787.913 29.5957 789.662 28.2384 791.771 27.2831C796.034 25.3509 801.821 25.9069 803.581 30.8634C805.255 35.5868 801.582 39.4716 799.861 43.5493C798.105 47.6985 798.454 57.1177 805.17 54.6542C807.727 53.7149 809.989 51.9984 812.26 50.5252C814.402 49.128 816.87 47.3529 819.486 47.0445C821.763 46.7766 823.769 48.8388 823.436 51.1572C823.073 53.6964 820.222 55.5889 818.312 56.9555C813.778 60.2282 806.18 63.8208 805.566 70.1499C805.166 74.2588 808.122 77.8519 811.828 79.2805C816.042 80.9027 821.262 79.4676 822.526 74.7601C823.117 72.5773 822.98 70.2261 823.858 68.1238C824.679 66.1592 826.794 64.3083 828.924 63.9061C832.241 63.2572 833.677 67.121 833.894 69.7495C834.207 73.4848 832.759 76.9629 829.798 79.2523C827.552 80.9745 823.068 83.3576 823.905 86.8389C824.836 90.7413 828.951 90.0625 831.925 89.841C833.919 89.6972 835.366 90.4098 835.644 92.569C835.892 94.4681 834.62 96.1292 833.299 97.3476C830.719 99.713 827.161 101.482 823.758 102.323C822.798 102.556 823.073 104.085 824.044 103.847C827.585 102.979 831.199 101.211 833.978 98.8312C836.585 96.6043 838.709 92.5918 835.963 89.5428C833.414 86.7006 829.428 89.9406 826.623 88.1294C822.422 85.4293 829.716 81.3799 831.494 79.8847C834.228 77.6094 835.535 74.0081 835.472 70.5078C835.425 67.6323 834.435 64.0056 831.567 62.719C828.298 61.2565 824.235 64.0534 822.75 66.8898C821.679 68.9346 821.673 71.2455 821.252 73.4689C820.702 76.3599 818.719 78.3393 815.663 78.4493C811.084 78.5978 806.16 74.4909 807.21 69.6262C807.896 66.477 810.83 64.1873 813.287 62.3623C816.052 60.3196 819.073 58.5783 821.674 56.3126C823.52 54.702 825.401 52.5113 824.924 49.8855C824.499 47.509 822.543 45.5192 820.069 45.4974C817.402 45.4735 814.848 47.0983 812.673 48.4565C810.207 50.0105 807.838 51.8475 805.162 53.0232C802.97 53.9775 801.341 53.6831 800.763 51.1612C800.306 49.1714 800.283 46.9983 800.938 45.0595C801.673 42.8616 803.009 40.9358 804.041 38.8685C806.033 34.8932 806.265 29.9587 802.64 26.8005C799.388 23.956 794.442 24.2829 790.757 26.0722C788.886 26.9803 787.083 28.2818 786.174 30.2068C785.27 32.1153 785.066 34.3024 784.814 36.3618C784.592 38.1727 784.574 41.0529 783.019 42.3295C781.392 43.6826 779.593 42.839 778.744 41.2042C777.339 38.5073 777.082 33.7 773.58 32.7491C768.903 31.4757 765.914 36.9105 764.846 40.5476C763.471 45.2263 763.772 50.4653 767.452 54.0498C769.3 55.8449 771.666 56.9767 774.028 57.9593C776.577 59.0158 779.441 59.7274 781.723 61.3117C782.859 62.0927 783.759 63.1531 784.024 64.5492C784.139 65.1531 784.383 66.8476 783.912 67.4063C783.406 68.0089 782.369 67.3174 781.769 67.0454C779.639 66.0876 777.12 65.2636 775.897 67.9592C775.055 69.8241 775.031 72.2675 776.043 74.07C777.061 75.9112 779.014 76.9003 780.914 77.6123C782.914 78.3587 785.106 78.7367 786.856 79.9889C788.222 80.9605 789.792 82.4374 790.131 84.155C790.569 86.3326 788.006 87.7141 786.15 87.8595C784.284 88.0103 782.302 87.1314 780.606 86.4714C779.152 85.9135 773.709 82.9509 773.124 85.9962C772.746 87.9658 774.445 90.6162 775.517 92.1152C776.915 94.0878 778.888 95.6576 781.208 96.413C784.951 97.632 789.351 96.2376 793.057 95.4824C796.952 94.6905 801.899 93.3188 805.747 94.9535C807.707 95.7879 809.275 97.9116 809.276 100.068C809.283 102.661 807.061 104.687 804.663 105.247C800.695 106.171 797.779 102.092 794.085 101.426C790.507 100.773 789.082 105.064 789.428 107.959C789.775 110.827 792.076 112.732 794.62 113.75C801.338 116.45 810.464 115.041 816.596 111.46C819.383 109.832 821.88 107.466 822.733 104.263C823.044 103.288 821.589 102.786 821.328 103.75Z" fill="#7EB693"/>
</g>
</svg>
